<mxfile host="app.diagrams.net" modified="2023-10-04T16:03:41.369Z" agent="Mozilla/5.0 (X11; Linux x86_64; rv:109.0) Gecko/20100101 Firefox/114.0" version="22.0.2" etag="_-1h4m0opC3d0LTM3w5J" type="github">
  <diagram name="PÃ¡gina-1" id="3rHO0FLQdO-PijWZnnOJ">
    <mxGraphModel>
      <root>
        <mxCell id="0" />
        <mxCell id="1" parent="0" />
      </root>
    </mxGraphModel>
  </diagram>
</mxfile>
